<?xml version="1.0" encoding="utf-8"?>
<!-- Generator: Adobe Illustrator 19.2.0, SVG Export Plug-In . SVG Version: 6.00 Build 0)  -->
<svg version="1.1" id="Layer_1" xmlns="http://www.w3.org/2000/svg" xmlns:xlink="http://www.w3.org/1999/xlink" x="0px" y="0px"
	 viewBox="0 0 80 103.2" style="enable-background:new 0 0 80 103.2;" xml:space="preserve">
<style type="text/css">
	.st0{fill:#FFFFFF;}
</style>
<g>
	<path class="st0" d="M9.8,102.1c0,0-0.1,0-0.1,0c-0.2,0-0.4-0.3-0.4-0.5V65.3c-5.6-7-8.7-15.7-8.7-24.7c0-9,3.1-17.8,8.8-24.7
		l1-1.2l1.1-1.1C19,5.6,29.1,1.2,40,1.2s21.1,4.4,28.6,12.3l1.1,1.1l1,1.2c5.6,7,8.8,15.8,8.8,24.7c0,9-3.1,17.7-8.7,24.7v36.3
		c0,0.2-0.2,0.4-0.4,0.5c0,0-0.1,0-0.1,0c-0.2,0-0.4-0.1-0.5-0.3L57.8,75.7c-4.9,2.5-10.1,3.9-15.5,4.2c-0.1,0-0.3,0-0.4,0
		c-0.1,0-0.3,0-0.4,0c-0.6,0-1.1,0-1.5,0c-0.5,0-1,0-1.5,0c0,0,0,0,0,0c-0.3,0-0.6,0-0.9,0c-5.4-0.3-10.6-1.7-15.5-4.2l-11.9,26.2
		C10.2,102,10,102.1,9.8,102.1z M13.1,86.7l5.8-12.8c-2.2-1.4-4.1-2.9-5.8-4.5V86.7z M66.9,86.7V69.3c-1.8,1.7-3.7,3.2-5.8,4.5
		L66.9,86.7z M40,76.2l4.9-10.8h-9.8L40,76.2z M14.4,65.4c1.8,1.9,3.9,3.6,6.1,5.1c1,0.6,2,1.2,3,1.8c3.8,2,7.9,3.3,12.2,3.8
		L31,65.4H14.4z M44.2,76c4.3-0.5,8.4-1.8,12.2-3.8c1-0.5,2.1-1.1,3-1.8c2.3-1.5,4.3-3.2,6.1-5H49L44.2,76z M66.9,61.7V25.9
		L50.7,61.7H66.9z M46.6,61.7l20.2-44.6C60,9.4,50.3,4.9,40,4.9c-10.2,0-20,4.4-26.8,12.1l20.2,44.6H46.6z M29.3,61.7L13.1,25.9
		v35.8H29.3z M70.6,58.8c3.3-5.5,5-11.8,5-18.2c0-6.4-1.7-12.7-5-18.2V58.8z M9.4,22.4c-3.3,5.5-5,11.8-5,18.2
		c0,6.5,1.7,12.8,5,18.2V22.4z"/>
	<path class="st0" d="M40,1.7c10.8,0,20.8,4.3,28.2,12.2l1.1,1.1l0.9,1.2c5.6,6.9,8.6,15.6,8.6,24.4S75.8,58.1,70.2,65l-0.1,0.1
		v36.5L58.1,75l-0.4,0.2c-4.8,2.5-10,3.9-15.4,4.2c-0.3,0-0.6,0-0.8,0c-0.6,0-1,0-1.5,0s-0.9,0-1.5,0c-0.3,0-0.6,0-0.8,0
		c-5.4-0.3-10.6-1.7-15.4-4.2L21.9,75L9.8,101.6V65.1L9.8,65c-5.6-6.9-8.6-15.6-8.6-24.4s3.1-17.5,8.7-24.4l1-1.2l1-1.1
		C19.2,6,29.2,1.7,40,1.7 M33.1,62.2h13.8L67.4,17l-0.2-0.2C60.3,8.9,50.4,4.4,40,4.4c-10.4,0-20.3,4.5-27.2,12.4L12.6,17L33.1,62.2
		 M70.1,60.6l0.7-1.2c3.5-5.7,5.3-12.2,5.3-18.8c0-6.7-1.8-13.2-5.3-18.8l-0.7-1.2V60.6 M9.9,60.6v-40l-0.7,1.2
		c-3.5,5.7-5.3,12.2-5.3,18.8c0,6.7,1.8,13.2,5.3,18.8L9.9,60.6 M49.9,62.2h17.5V23.5L49.9,62.2 M12.6,62.2h17.5L12.6,23.5V62.2
		 M36.6,76.6l-5.3-11.7H13.3l0.6,0.7c1.9,2,4.1,3.8,6.4,5.3c1,0.6,2,1.2,3.1,1.8c3.9,2.1,8.2,3.4,12.6,3.8L36.6,76.6 M43.4,76.6
		l0.7-0.1c4.4-0.5,8.6-1.8,12.6-3.8c1.1-0.5,2.1-1.2,3.1-1.8c2.3-1.5,4.5-3.3,6.4-5.3l0.6-0.6H48.7L43.4,76.6 M39.7,76.7h0.6
		l5.3-11.8H34.3L39.7,76.7 M67.4,89V68.2l-0.7,0.6c-1.8,1.7-3.8,3.3-6,4.7l-0.3,0.2L67.4,89 M12.6,89l7-15.4l-0.3-0.2
		c-2.2-1.4-4.2-2.9-6-4.7l-0.7-0.6V89 M40,0.7c-11,0-21.3,4.4-28.9,12.5l-1,1.1c0,0,0,0-0.1,0.1l-1,1.2c-5.7,7.1-8.9,16-8.9,25.1
		c0,9,3.1,17.8,8.7,24.9v36.2c0,0.5,0.3,0.9,0.8,1c0.1,0,0.1,0,0.2,0c0.4,0,0.7-0.2,0.9-0.6l11.6-25.7c4.8,2.4,9.9,3.7,15.2,4
		c0.3,0,0.6,0,0.9,0c0.5,0,1,0,1.5,0c0.5,0,1,0,1.5,0c0.2,0,0.3,0,0.4,0c0.2,0,0.3,0,0.5,0c5.3-0.3,10.4-1.7,15.2-4L69.2,102
		c0.2,0.4,0.5,0.6,0.9,0.6c0.1,0,0.1,0,0.2,0c0.5-0.1,0.8-0.5,0.8-1V65.5c5.6-7,8.7-15.9,8.7-24.9c0-9.1-3.1-18-8.9-25.1l-0.9-1.2
		c0,0,0,0-0.1-0.1L69,13.2C61.3,5.1,51.1,0.7,40,0.7L40,0.7z M13.8,17.2C20.5,9.7,30,5.4,40,5.4c10,0,19.5,4.3,26.2,11.7l-19.9,44
		H33.8L13.8,17.2L13.8,17.2z M8.9,56.9c-2.6-5-4-10.6-4-16.3c0-5.7,1.4-11.3,4-16.3V56.9L8.9,56.9z M71.1,56.9V24.3
		c2.6,5,4,10.6,4,16.3C75.2,46.3,73.8,51.9,71.1,56.9L71.1,56.9z M51.5,61.2l15-33v33H51.5L51.5,61.2z M13.6,61.2v-33l15,33H13.6
		L13.6,61.2z M15.7,65.9h15l4.3,9.5c-3.9-0.6-7.6-1.8-11.1-3.6c-1-0.5-2-1.1-3-1.8C19,68.8,17.3,67.4,15.7,65.9L15.7,65.9z
		 M49.3,65.9h15c-1.6,1.5-3.3,2.9-5.2,4.1c-1,0.6-2,1.2-3,1.7c-3.5,1.8-7.2,3-11.1,3.6L49.3,65.9L49.3,65.9z M35.9,65.9h8.2L40,75
		L35.9,65.9L35.9,65.9z M13.6,84.4V70.4c1.4,1.3,3,2.5,4.7,3.6L13.6,84.4L13.6,84.4z M61.7,74c1.7-1.1,3.2-2.3,4.7-3.6v13.9L61.7,74
		L61.7,74z"/>
</g>
</svg>
